<?xml version="1.0" standalone="no"?><!DOCTYPE svg PUBLIC "-//W3C//DTD SVG 1.1//EN" "http://www.w3.org/Graphics/SVG/1.1/DTD/svg11.dtd"><svg t="1600055746583" class="icon" viewBox="0 0 1024 1024" version="1.1" xmlns="http://www.w3.org/2000/svg" p-id="2692" xmlns:xlink="http://www.w3.org/1999/xlink" width="256" height="256"><defs><style type="text/css"></style></defs><path d="M585.813333 640l-166.4 288.426667a425.984 425.984 0 0 0 362.24-85.76l-156.16-270.933334M104.96 640c39.253333 124.586667 134.4 224.426667 255.573333 270.506667L517.12 640m-152.746667-128l-166.4-288A420.48 420.48 0 0 0 85.333333 512c0 29.013333 2.986667 57.6 8.533334 85.333333h319.573333m516.693333-170.666666h-319.573333l12.373333 21.333333 203.093334 352A423.68 423.68 0 0 0 938.666667 512c0-29.44-2.986667-58.026667-8.533334-85.333333m-11.093333-42.666667c-39.253333-125.013333-134.4-224.426667-255.573333-270.506667L506.88 384M401.066667 448l203.52-352.426667C574.72 89.173333 544 85.333333 512 85.333333c-102.4 0-196.266667 35.84-269.653333 96l156.16 270.933334 2.56-4.266667z" fill="#EF4F47" p-id="2693"></path></svg>