<svg viewBox="0 0 1256 1256" width="256" height="256" xmlns="http://www.w3.org/2000/svg" class="icon">
 <defs>
  <style type="text/css"/>
 </defs>
 <g>
  <title>Layer 1</title>
  <path id="svg_1" d="m9.57009,870.87851l293.48287,0c5.10405,0 9.57009,4.46604 9.57009,9.57009s-4.46604,9.57009 -9.57009,9.57009l-293.48287,0c-5.10405,0 -9.57009,-4.46604 -9.57009,-9.57009s4.46604,-9.57009 9.57009,-9.57009zm886.82866,0l293.48287,0c5.10405,0 9.57009,4.46604 9.57009,9.57009s-4.46604,9.57009 -9.57009,9.57009l-293.48287,0c-5.10405,0 -9.57009,-4.46604 -9.57009,-9.57009s4.46604,-9.57009 9.57009,-9.57009z" fill="#bbbbbb"/>
  <path id="svg_2" d="m143.5514,749.65732c5.10405,0 9.57009,4.46605 9.57009,9.57009l0,108.46106c0,5.10405 -4.46604,9.5701 -9.57009,9.5701s-9.57009,-4.46605 -9.57009,-9.5701l0,-108.46106c0,-5.10405 4.46604,-9.57009 9.57009,-9.57009z" fill="#bbbbbb"/>
  <path id="svg_3" d="m143.5514,787.93769c10.84611,0 20.4162,-1.91401 29.98629,-6.38006c8.93209,-3.82803 16.58817,-9.57009 22.96823,-16.58816c13.39813,-14.67414 21.0542,-34.45234 21.0542,-56.78255c0,-6.38007 -1.91401,-17.86418 -12.12211,-37.64237c-7.01807,-14.03614 -17.22617,-29.34829 -29.9863,-46.57446c-11.48411,-15.31215 -22.96822,-28.71028 -31.2623,-38.28037c-8.29408,9.57009 -19.7782,22.96822 -30.6243,38.28037c-12.76013,17.22617 -22.96823,32.53832 -29.98629,46.57446c-10.2081,19.77819 -12.12212,31.2623 -12.12212,37.64237c0,21.69221 7.65607,42.10841 21.0542,56.78255c6.38006,7.01807 14.03614,12.76012 22.96823,16.58816c7.65607,4.46605 17.22617,6.38006 28.07227,6.38006m0,19.14019c-54.86853,0 -92.5109,-44.02243 -92.5109,-98.25296s92.5109,-150.56947 92.5109,-150.56947s92.51091,96.33894 92.51091,150.56947c0,54.23053 -37.64237,98.25296 -92.51091,98.25296z" fill="#bbbbbb"/>
  <path id="svg_4" d="m344.52336,1004.85981a264.77259,19.14019 0 1 0 529.54518,0a264.77259,19.14019 0 1 0 -529.54518,0z" fill="#bbbbbb"/>
  <path id="svg_5" d="m778.3676,992.09969l-344.52336,0c-70.18069,0 -127.60125,-57.42056 -127.60125,-127.60125l0,-344.52336c0,-70.18069 57.42056,-127.60125 127.60125,-127.60125l344.52336,0c70.18069,0 127.60125,57.42056 127.60125,127.60125l0,344.52336c0,70.18069 -57.42056,127.60125 -127.60125,127.60125zm-82.94081,-263.49657c-7.01807,0 -13.39813,2.55202 -17.86417,7.65607l-236.70031,236.70031l331.12523,0c46.57445,0 88.68286,-28.07227 106.54704,-71.4567l-165.24361,-165.24361c-4.46605,-4.46604 -10.84611,-7.65607 -17.86418,-7.65607zm-197.78193,-19.14019c-7.01807,0 -13.39813,2.55202 -17.86417,7.65607l-153.75951,153.75951c5.10405,49.12648 41.47041,89.32087 89.95888,99.52897l176.08972,-176.08972l-76.56075,-76.56075c-4.46604,-5.10405 -10.8461,-8.29408 -17.86417,-8.29408zm197.78193,-2.55203c10.2081,0 19.77819,3.82804 26.79626,11.48412l162.05359,162.05358c1.27601,-7.65608 1.91402,-14.67414 1.91401,-22.33022l0,-331.76324c0,-63.16262 -51.6785,-114.84112 -114.84112,-114.84112l-331.12523,0c-63.16262,0 -114.84112,51.6785 -114.84112,114.84112l0,317.7271l145.46542,-145.46542c14.67414,-14.67414 38.91838,-14.67414 54.23053,0l81.02679,81.6648l62.52461,-62.52461c7.01807,-6.38006 16.58816,-10.84611 26.79626,-10.84611zm38.28038,-59.33458c-49.12648,0 -89.32088,-40.19439 -89.32088,-89.32087s40.1944,-89.32087 89.32088,-89.32087s89.32087,40.19439 89.32087,89.32087c0,23.60623 -9.5701,46.57446 -26.15826,63.16262c-16.58816,16.58816 -39.55638,26.15825 -63.16261,26.15825zm0,-159.50155c-38.91838,0 -70.18069,31.2623 -70.18069,70.18068s31.26231,70.18069 70.18069,70.18069s70.18068,-31.26231 70.18068,-70.18069s-31.2623,-70.18068 -70.18068,-70.18068z" fill="#bbbbbb"/>
  <path id="svg_6" d="m950.62928,398.75389c-10.8461,0 -19.14018,-8.29408 -19.14018,-19.14018l0,-6.38007c0,-10.8461 8.29408,-19.14018 19.14018,-19.14018l6.38007,0c10.8461,0 19.14018,8.29408 19.14018,19.14018l0,6.38007c0,10.8461 -8.29408,19.14018 -19.14018,19.14018l-6.38007,0zm-536.56324,-80.38878l-1.91402,-1.91402c-3.82803,-3.82804 -3.82803,-10.2081 0,-14.03614l12.76013,-12.76012l-12.76013,-12.76013c-3.82803,-3.82803 -3.82803,-10.2081 0,-14.03613l1.91402,-1.91402c3.82804,-3.82804 10.2081,-3.82804 14.03614,0l12.76012,12.76012l12.76013,-12.76012c3.82804,-3.82804 10.2081,-3.82804 14.03614,0l1.91402,1.91402c3.82803,3.82803 3.82803,10.2081 0,14.03613l-12.76013,12.76013l12.76013,12.76012c3.82803,3.82804 3.82803,10.2081 0,14.03614l-1.91402,1.91402c-3.82804,3.82804 -10.2081,3.82804 -14.03614,0l-12.76013,-12.76013l-12.76012,12.76013c-3.19003,3.82804 -9.57009,3.82804 -14.03614,0zm160.13957,-104.63302c0,-10.84611 8.29408,-19.14019 19.14018,-19.14019s19.14019,8.29408 19.14019,19.14019s-8.29408,19.14018 -19.14019,19.14018s-19.14018,-8.29408 -19.14018,-19.14018zm280.72274,-5.10405l-12.12212,-12.12212l-12.12212,12.12212c-4.46604,4.46604 -11.48411,4.46604 -15.95015,0s-4.46605,-11.48412 0,-15.95016l12.12212,-12.12212l-12.12212,-12.12211c-4.46605,-4.46605 -4.46605,-11.48412 0,-15.95016s11.48411,-4.46604 15.95015,0l12.12212,12.12212l12.12212,-11.48411c4.46604,-4.46605 11.48411,-4.46605 15.95016,0s4.46604,11.48411 0,15.95015l-12.12212,12.12212l12.12212,12.12212c4.46604,4.46604 3.82803,11.48411 -0.63801,15.95015c-4.46605,3.19003 -10.84611,3.19003 -15.31215,-0.638z" fill="#bbbbbb"/>
  <path id="svg_7" d="m1231.35202,682.66667c-5.10405,0 -9.57009,-4.46605 -9.57009,-9.5701c0,-30.6243 -20.4162,-57.42056 -49.76449,-65.07663c-17.22616,-4.46605 -35.09034,-1.91402 -51.04049,7.01807c-15.31215,8.93208 -26.15826,23.60623 -31.26231,40.83239c-1.27601,5.10405 -6.38006,8.29409 -11.48411,7.01807c-5.10405,-1.27601 -8.29408,-6.38006 -7.01807,-11.48411c12.12212,-45.93645 59.33458,-73.37072 105.27103,-61.2486c37.64237,10.2081 64.43863,44.02243 64.43863,83.57882c0,4.46604 -4.46605,8.93209 -9.5701,8.93209z" fill="#bbbbbb"/>
  <path id="svg_8" d="m1014.42991,689.04673c-5.10405,0 -9.5701,-4.46604 -9.5701,-9.57009c0,-29.9863 24.24424,-54.23053 54.23053,-54.23053c12.76013,0 24.88225,4.46604 34.45234,12.76012c3.82804,3.19003 4.46604,9.57009 1.27601,13.39813c-3.19003,3.82804 -9.57009,4.46605 -13.39813,1.27601c-6.38006,-5.10405 -14.03614,-8.29408 -22.33022,-8.29408c-19.14018,0 -35.09034,15.95016 -35.09034,35.09035c0,5.10405 -4.46604,9.57009 -9.57009,9.57009z" fill="#bbbbbb"/>
  <path id="svg_9" d="m934.67913,673.09657l89.32087,0l0,19.14019l-89.32087,0l0,-19.14019z" fill="#bbbbbb"/>
  <path id="svg_10" d="m1221.78193,673.09657l25.52025,0l0,19.14019l-25.52025,0l0,-19.14019z" fill="#bbbbbb"/>
  <path id="svg_11" d="m452.98442,108.46106c-5.74205,0 -9.57009,-4.46604 -9.57009,-9.57009c0.63801,-37.00436 -23.60623,-68.26667 -59.33458,-77.19876c-41.4704,-10.2081 -84.21682,15.31215 -94.42492,56.78256c-1.27601,5.10405 -6.38006,8.29408 -11.48411,7.01807c-5.10405,-1.27602 -8.29408,-6.38007 -7.01807,-11.48412c12.76012,-51.6785 65.71464,-83.57881 117.39314,-70.81869c44.66044,10.84611 74.64673,50.40249 74.00873,96.33894c0,4.46605 -4.46605,8.93209 -9.5701,8.93209z" fill="#bbbbbb"/>
  <path id="svg_12" d="m191.40187,108.46106c-5.10405,0 -9.57009,-4.46604 -9.57009,-9.57009c0,-21.05421 8.29408,-41.47041 22.96822,-56.14455c15.31215,-15.31215 35.09034,-23.60623 56.78256,-23.60623c18.50218,0 36.36635,6.38006 51.04049,18.50218c3.82804,3.19003 4.46605,9.57009 1.27602,13.39813c-3.19004,3.82804 -9.5701,4.46604 -13.39813,1.27601c-11.48412,-8.93209 -24.88225,-14.03614 -38.91838,-14.03614c-15.95016,0 -31.26231,6.38007 -42.74642,17.86418s-17.86418,26.79626 -17.86418,42.74642c0,5.10405 -4.46604,9.57009 -9.57009,9.57009z" fill="#bbbbbb"/>
  <path id="svg_13" d="m60.61059,92.5109l140.36137,0l0,19.14019l-140.36137,0l0,-19.14019z" fill="#bbbbbb"/>
  <path id="svg_14" d="m507.21495,92.5109l51.0405,0l0,19.14019l-51.0405,0l0,-19.14019z" fill="#bbbbbb"/>
  <path id="svg_15" d="m516.78505,108.46106c-5.10405,0 -9.5701,-4.46604 -9.5701,-9.57009c0,-15.95016 -12.76012,-28.71028 -28.71028,-28.71028s-28.71028,12.76012 -28.71028,28.71028c0,5.10405 -4.46604,9.57009 -9.57009,9.57009s-9.57009,-4.46604 -9.57009,-9.57009c0,-26.15826 21.69221,-47.85047 47.85046,-47.85047s47.85047,21.69221 47.85047,47.85047c0,5.10405 -4.46604,9.57009 -9.57009,9.57009z" fill="#bbbbbb"/>
 </g>
</svg>