<?xml version="1.0" standalone="no"?><!DOCTYPE svg PUBLIC "-//W3C//DTD SVG 1.1//EN" "http://www.w3.org/Graphics/SVG/1.1/DTD/svg11.dtd"><svg t="1616574050547" class="icon" viewBox="0 0 1365 1024" version="1.1" xmlns="http://www.w3.org/2000/svg" p-id="11204" xmlns:xlink="http://www.w3.org/1999/xlink" width="63.984375" height="48"><defs><style type="text/css"></style></defs><path d="M566.613333 0.597333S461.056-4.181333 393.642667 82.944s-16.810667 220.16 15.189333 288.938667c31.914667 68.608 200.704 338.005333 206.848 343.893333 6.144 5.973333 13.653333 3.413333 13.994667-1.877333 0.426667-5.290667 19.285333-391.424 4.096-486.656C618.496 132.010667 573.44 11.093333 566.613333 0.597333zM201.386667 180.138667c-12.117333 1.28-98.816 87.808-106.666667 172.373333-7.850667 84.48 28.330667 140.8 129.450667 208.213333 101.717333 72.021333 343.466667 204.8 347.904 193.365334 4.437333-11.434667-93.696-185.770667-174.08-312.576C317.781333 314.709333 213.333333 178.858667 201.386667 180.053333z m32.426666 779.946666c73.216 32.768 187.221333-40.704 218.709334-62.037333l83.541333-63.573333-414.634667 11.093333s39.253333 81.92 112.469334 114.602667z m10.496-334.933333C169.984 587.946667 17.322667 502.613333 11.349333 504.32c-5.973333 1.621333-29.013333 107.776 18.773334 187.733333 47.786667 80.042667 140.8 104.448 183.466666 110.933334 47.872 6.826667 329.984 3.84 328.021334-1.792-1.621333-4.949333-223.146667-139.008-297.386667-176.042667z m687.786667-542.208c-67.413333-87.04-173.141333-82.346667-173.141333-82.346667-6.826667 10.496-51.797333 131.413333-66.986667 226.645334-15.189333 95.232 3.754667 481.365333 4.096 486.656 0.426667 5.376 7.765333 7.850667 13.994667 1.962666 6.144-5.973333 174.933333-275.370667 206.933333-343.978666 31.914667-68.693333 82.602667-201.813333 15.104-288.938667zM1314.133333 504.32c-5.973333-1.706667-158.549333 83.626667-232.789333 120.832-74.24 37.034667-295.765333 171.093333-297.386667 176.042667-1.962667 5.632 280.064 8.704 328.106667 1.877333 42.666667-6.570667 135.594667-30.976 183.381333-111.018667 47.786667-79.957333 24.746667-186.112 18.773334-187.733333z m-441.002666 393.728c31.573333 21.333333 145.493333 94.72 218.709333 62.122667 73.130667-32.768 112.384-114.602667 112.384-114.602667l-414.549333-11.093333s54.186667 41.130667 83.456 63.573333z m357.802666-545.536c-7.850667-84.565333-94.549333-171.093333-106.666666-172.373333-11.946667-1.28-116.394667 134.485333-196.693334 261.376C847.36 568.32 749.226667 742.656 753.578667 754.090667c4.437333 11.349333 246.272-121.344 347.904-193.450667 101.12-67.328 137.386667-123.562667 129.450666-208.213333z" fill="#E43958" p-id="11205"></path></svg>