<?xml version="1.0" standalone="no"?><!DOCTYPE svg PUBLIC "-//W3C//DTD SVG 1.1//EN" "http://www.w3.org/Graphics/SVG/1.1/DTD/svg11.dtd"><svg t="1648175637598" class="icon" viewBox="0 0 1024 1024" version="1.1" xmlns="http://www.w3.org/2000/svg" p-id="8123" xmlns:xlink="http://www.w3.org/1999/xlink" width="512" height="512"><defs><style type="text/css"></style></defs><path d="M429.653 52.16c113.814-21.28 235.094 2.667 332.907 64.373 79.36 49.814 143.36 123.947 180.427 210.08C990.133 434.507 993.92 560.48 953.973 671.2c-33.706 94.88-99.52 177.76-183.68 232.8-77.44 51.2-170.56 78.293-263.36 76.587-100.8-0.587-200.8-35.627-280.373-97.28-85.067-65.28-146.453-160.534-170.24-265.12C32.693 517.867 44.107 410.08 87.36 316.64 149.493 179.787 281.44 77.547 429.653 52.16m-172.16 317.333c-65.76 44.267-93.12 135.574-62.56 208.694C215.04 629.6 260.96 669.92 314.56 683.2c61.547 14.827 128.747-1.92 177.813-41.547C563.36 585.76 602.56 502.347 650.24 427.893c22.187 40.587 45.653 80.534 67.787 121.174-23.36-16.32-45.867-33.707-68.8-50.507-17.547 12.16-35.84 23.253-52.48 36.747C661.867 584 727.627 631.84 792.8 680.48c13.227 11.413 37.44 10.24 46.347-6.027 5.866-10.88 5.226-24.96-1.334-35.413-53.92-95.573-107.466-191.36-161.173-287.093-9.173-18.507-38.24-20.267-49.333-2.774-37.974 58.774-69.334 121.76-110.667 178.347-26.987 36.587-59.307 72.213-102.56 89.173-36.107 13.867-79.2 14.827-113.387-4.906-35.306-19.68-59.2-59.04-58.133-99.68 0.107-40.214 24.267-78.667 59.52-97.44 34.667-19.2 77.28-17.28 113.813-4.694 39.467 13.654 69.707 43.68 102.294 68.48 17.226-12.053 35.84-22.506 51.786-36.053-24.906-22.4-52.213-42.88-79.253-62.933-66.72-47.414-164.213-59.2-233.227-9.974z" fill="#17B257" p-id="8124"></path><path d="M257.493 369.493c69.014-49.226 166.507-37.44 233.227 9.974C517.76 399.52 545.067 420 569.973 442.4c-15.946 13.547-34.56 24-51.786 36.053-32.587-24.8-62.827-54.826-102.294-68.48-36.533-12.586-79.146-14.506-113.813 4.694-35.253 18.773-59.413 57.226-59.52 97.44-1.067 40.64 22.827 80 58.133 99.68 34.187 19.733 77.28 18.773 113.387 4.906 43.253-16.96 75.573-52.586 102.56-89.173 41.333-56.587 72.693-119.573 110.667-178.347 11.093-17.493 40.16-15.733 49.333 2.774 53.707 95.733 107.253 191.52 161.173 287.093 6.56 10.453 7.2 24.533 1.334 35.413-8.907 16.267-33.12 17.44-46.347 6.027-65.173-48.64-130.933-96.48-196.053-145.173 16.64-13.494 34.933-24.587 52.48-36.747 22.933 16.8 45.44 34.187 68.8 50.507-22.134-40.64-45.6-80.587-67.787-121.174-47.68 74.454-86.88 157.867-157.867 213.76-49.066 39.627-116.266 56.374-177.813 41.547-53.6-13.28-99.52-53.6-119.627-105.013-30.56-73.12-3.2-164.427 62.56-208.694z" fill="#FFFFFF" p-id="8125"></path></svg>