<?xml version="1.0" standalone="no"?><!DOCTYPE svg PUBLIC "-//W3C//DTD SVG 1.1//EN" "http://www.w3.org/Graphics/SVG/1.1/DTD/svg11.dtd"><svg t="1616542302507" class="icon" viewBox="0 0 1024 1024" version="1.1" xmlns="http://www.w3.org/2000/svg" p-id="5373" width="200" height="200" xmlns:xlink="http://www.w3.org/1999/xlink"><defs><style type="text/css"></style></defs><path d="M507.84 160c130.56 0 238.08 99.2 252.16 227.2 113.28 18.56 200 117.44 199.36 236.8 0 132.48-106.24 240-237.76 240-1.28 0-2.56-0.32-3.84-0.32s-2.56 0.32-3.84 0.32H301.76C170.56 864 64 756.48 64 624c0-116.48 82.56-213.76 191.68-235.52C269.12 260.16 376.96 160 507.84 160zM544 352h-64v228.16l-50.56-50.56L384 574.72l128 128 128.32-128.64-45.12-45.12-51.2 51.2z" fill="#262626" p-id="5374"></path></svg>