<?xml version="1.0" standalone="no"?><!DOCTYPE svg PUBLIC "-//W3C//DTD SVG 1.1//EN" "http://www.w3.org/Graphics/SVG/1.1/DTD/svg11.dtd"><svg t="1587458167150" class="icon" viewBox="0 0 1024 1024" version="1.1" xmlns="http://www.w3.org/2000/svg" p-id="331706" xmlns:xlink="http://www.w3.org/1999/xlink" width="200" height="200"><defs><style type="text/css"></style></defs><path d="M730.573099 630.568421c40.097361 0 74.37506 13.904519 102.831158 41.714526s42.684632 62.409782 42.684632 103.801264c0 40.097361-14.228534 74.37506-42.684632 102.831157s-62.733797 42.684632-102.831158 42.684632-74.37506-14.228534-102.831157-42.684632-42.684632-62.733797-42.684632-102.831157c0-3.880421 0.323045-8.407902 0.970105-13.581474s0.970105-9.053992 0.970105-11.641263L334.770152 599.525053c-27.162947 20.695256-56.913165 31.043368-89.249684 31.043368-40.097361 0-74.37506-14.228534-102.831158-42.684632S100.004678 525.149992 100.004678 485.052632s14.228534-74.37506 42.684632-102.831158 62.733797-42.684632 102.831158-42.684632c34.923789 0 64.674008 9.701053 89.249684 29.103158l252.227368-151.336421c0-2.587271-0.323045-6.467692-0.970105-11.641263s-0.970105-9.053992-0.970105-11.641263c0-40.097361 14.228534-74.37506 42.684632-102.831158s62.733797-42.684632 102.831157-42.684632 74.37506 13.904519 102.831158 41.714526 42.684632 62.409782 42.684632 103.801264c0 40.097361-14.228534 74.37506-42.684632 102.831158s-62.733797 42.684632-102.831158 42.684631c-33.630639 0-62.733797-10.348113-87.309473-31.043368L389.096047 459.829895c1.29315 5.173571 1.940211 13.581474 1.94021 25.222737 0 10.348113-0.64706 18.108955-1.94021 23.282526l254.167579 151.336421c23.282526-19.402105 52.385684-29.103158 87.309473-29.103158" p-id="331707" fill="#f68c42"></path></svg>