<?xml version="1.0" standalone="no"?><!DOCTYPE svg PUBLIC "-//W3C//DTD SVG 1.1//EN" "http://www.w3.org/Graphics/SVG/1.1/DTD/svg11.dtd"><svg t="1596716242915" class="icon" viewBox="0 0 1025 1024" version="1.1" xmlns="http://www.w3.org/2000/svg" p-id="31636" xmlns:xlink="http://www.w3.org/1999/xlink" width="256.25" height="256"><defs><style type="text/css"></style></defs><path d="M1023.800234 512.599298c0-282.468982-228.931721-511.400702-511.400702-511.400703S0.998829 230.230199 0.998829 512.599298C0.998829 767.900117 187.979711 979.452204 432.493172 1017.807257V660.426063H302.645337v-147.826765h129.847835V399.93133c0-128.149824 76.310574-198.966836 193.173625-198.966835 55.934452 0 114.46586 9.988295 114.46586 9.988295v125.852516h-64.524385c-63.525556 0-83.30238 39.453765-83.30238 79.90636v95.887632h141.833788l-22.67343 147.826765H592.305892V1017.807257c244.513461-38.355053 431.494343-249.90714 431.494342-505.207959z" fill="#1877F2" p-id="31637"></path><path d="M711.46625 660.426063l22.67343-147.826765H592.305892v-95.887632c0-40.452595 19.776824-79.90636 83.30238-79.90636H740.132657v-125.852516s-58.531409-9.988295-114.46586-9.988295c-116.863051 0-193.173625 70.817011-193.173625 198.966835v112.667968H302.645337v147.826765h129.847835V1017.807257c26.06945 4.095201 52.738197 6.192743 79.90636 6.192743s53.83691-2.097542 79.90636-6.192743V660.426063h119.160358z" fill="#FFFFFF" p-id="31638"></path></svg>