<?xml version="1.0" standalone="no"?><!DOCTYPE svg PUBLIC "-//W3C//DTD SVG 1.1//EN" "http://www.w3.org/Graphics/SVG/1.1/DTD/svg11.dtd"><svg t="1587788116341" class="icon" viewBox="0 0 1025 1024" version="1.1" xmlns="http://www.w3.org/2000/svg" p-id="34977" xmlns:xlink="http://www.w3.org/1999/xlink" width="200.1953125" height="200"><defs><style type="text/css"></style></defs><path d="M628.676932 346.172838l348.099542 241.536716c64.074205 44.450946 64.074205 116.545092 0 160.996038l-348.099542 241.536716c-64.074205 44.450946-167.963717 44.450946-232.037921 0L48.53947 748.705592c-64.074205-44.450946-64.074205-116.545092 0-160.996038l348.099541-241.536716c64.074205-44.450946 167.963717-44.450946 232.037921 0z" fill="#99EFFF" p-id="34978"></path><path d="M628.676932 33.338283l348.099542 241.508276c64.074205 44.479386 64.074205 116.573531 0 161.024477l-348.099542 241.508277c-64.074205 44.479386-167.963717 44.479386-232.037921 0L48.53947 435.871036c-64.074205-44.450946-64.074205-116.545092 0-161.024477l348.099541-241.508276c64.074205-44.450946 167.963717-44.450946 232.037921 0z" fill="#439EFF" p-id="34979"></path><path d="M583.571878 330.246715l212.699057 125.588854c55.115761 31.567851 96.438361 38.080497 0 83.725903l-212.699057 125.588854c-39.189638 23.121318-102.666613 23.121318-141.827812 0l-212.727497-125.588854c-65.49618-51.788339-80.45536-36.20349 0-83.725903l212.727497-125.588854c39.161198-23.121318 102.638174-23.121318 141.827812 0z" fill="#157EFC" p-id="34980"></path></svg>