<?xml version="1.0" standalone="no"?><!DOCTYPE svg PUBLIC "-//W3C//DTD SVG 1.1//EN" "http://www.w3.org/Graphics/SVG/1.1/DTD/svg11.dtd"><svg t="1616573987256" class="icon" viewBox="0 0 3444 1024" version="1.1" xmlns="http://www.w3.org/2000/svg" p-id="9536" xmlns:xlink="http://www.w3.org/1999/xlink" width="161.4375" height="48"><defs><style type="text/css"></style></defs><path d="M3306.59 1020.416H127.184C57.414 1020.416 0.07 962.188 0.07 893.254V127.162A127.279 127.279 0 0 1 127.185 0H3306.59a127.279 127.279 0 0 1 127.139 127.162v766.092a127.279 127.279 0 0 1-127.139 127.162z" p-id="9537"></path><path d="M1206.11 261.981c0 21.48-6.191 38.307-18.62 50.572-13.94 15.313-32.534 22.993-55.784 22.993a76.52 76.52 0 0 1-55.808-22.993c-15.5-15.314-23.273-33.7-23.273-56.693 0-22.97 7.75-41.355 23.273-56.692a76.59 76.59 0 0 1 55.808-22.97c10.845 0 21.69 1.536 31 6.12 9.309 4.609 18.594 9.193 23.249 16.873l-13.964 13.778c-10.845-12.242-24.785-18.386-41.844-18.386-15.5 0-29.44 6.144-41.844 16.85-12.405 10.728-17.06 26.065-17.06 44.45 0 18.386 6.191 32.14 17.06 44.405 12.404 10.729 26.344 16.873 41.844 16.873 17.059 0 31-6.144 41.868-16.873 7.726-7.657 12.404-18.385 12.404-30.627h-55.831v-18.385h75.962c1.56 3.048 1.56 6.12 1.56 10.705z" fill="#FFFFFF" p-id="9538"></path><path d="M1130.124 337.082c-21.69 0-41.821-7.68-57.321-22.993-15.523-15.314-23.273-35.235-23.273-58.229 0-22.97 7.75-42.891 23.273-58.228 15.5-15.313 34.094-22.97 57.344-22.97 10.845 0 21.713 1.536 32.558 6.144a77.778 77.778 0 0 1 24.786 16.85v1.512l-15.476 15.337-1.56-1.536c-9.309-12.242-23.272-16.85-40.308-16.85-15.5 0-29.44 6.121-40.308 16.85-10.846 10.728-17.036 26.042-17.036 42.891 0 18.41 6.19 32.163 17.036 42.915a56.6 56.6 0 0 0 40.308 16.85c17.059 0 31-6.121 41.868-16.85 6.167-7.68 10.845-16.872 12.404-29.114h-55.831v-21.457h75.962v1.536c1.56 3.072 1.56 7.656 1.56 12.241 0 21.48-6.191 38.307-18.62 52.131-13.94 13.777-34.094 22.97-57.343 22.97z m0-160.884a76.567 76.567 0 0 0-55.785 22.97c-15.5 15.337-23.273 33.722-23.273 56.692 0 21.458 7.773 41.38 23.273 56.693a76.567 76.567 0 0 0 55.808 22.993c23.273 0 41.868-7.68 55.831-22.993 12.381-12.265 18.572-29.091 18.572-50.572 0-3.049 0-7.657-1.536-10.705h-71.308v15.313h55.785v1.536c-1.536 13.778-6.167 24.506-12.404 32.163-10.822 12.265-26.345 16.873-43.38 16.873a60.253 60.253 0 0 1-41.868-16.873c-12.405-12.241-18.619-26.042-18.619-44.428s6.214-33.699 18.619-44.427c12.404-10.706 26.344-16.85 41.867-16.85 17.036 0 31 6.144 41.845 16.85l10.868-12.265c-6.214-6.12-13.964-12.241-23.273-15.313-9.309-4.585-20.154-7.68-31-7.68z m192.232 21.434h-69.725v49.059h61.999v18.385h-62.022v49.036h69.772v18.385h-88.367V179.27h88.367v18.385z" fill="#FFFFFF" p-id="9539"></path><path d="M1323.916 332.474h-91.462V177.711h91.462v21.457h-69.749v45.987h62.022v21.434h-62.022v45.964h69.749v19.921z m-88.367-1.536h86.807v-16.85h-69.748v-50.57h61.999v-15.314h-61.999v-50.572h69.748v-16.85h-86.807v150.156z m170.52 0h-20.155V196.096h-41.867v-18.385h105.425v18.385h-43.404v134.842z" fill="#FFFFFF" p-id="9540"></path><path d="M1407.628 332.474h-21.714V199.168h-41.89v-21.457h106.984v21.457h-41.844v133.306h-1.536z m-20.155-1.536h17.06V196.12h41.844v-16.872H1344.07v16.872h41.844v134.82h1.56z m136.425 0V177.711h20.131v153.227h-20.13z" fill="#FFFFFF" p-id="9541"></path><path d="M1545.588 332.474h-21.69V177.711h21.69v154.763z m-20.154-1.536h17.06V180.806h-17.037v150.132h-0.023z m105.426 0h-20.155V196.096h-43.403v-18.385h105.402v18.408h-43.38l1.536 134.82z" fill="#FFFFFF" p-id="9542"></path><path d="M1630.86 332.474h-20.155V199.168h-43.403v-21.457h106.961v21.457h-43.403v133.306z m-18.619-1.536h17.083V196.12h43.38v-16.872h-102.307v16.872h43.404v134.82h-1.536z m260.422-18.385a76.474 76.474 0 0 1-55.784 22.993 76.52 76.52 0 0 1-55.808-22.993c-15.5-15.314-21.714-33.7-21.714-56.693 0-22.97 7.773-41.355 21.714-56.692a76.567 76.567 0 0 1 55.808-22.97c21.713 0 40.308 7.68 55.83 22.97 15.477 15.337 23.227 33.722 23.227 56.692-1.536 21.458-9.31 41.38-23.273 56.693z m-97.629-13.778c10.845 10.706 24.786 16.85 41.845 16.85 17.058 0 29.463-6.121 41.867-16.85 10.845-10.728 17.036-26.065 17.036-44.45 0-18.386-6.19-32.164-17.036-44.428-10.868-10.706-24.809-16.85-41.89-16.85-17.036 0-29.417 6.121-41.822 16.85-10.868 10.728-17.059 26.065-17.059 44.45 0 18.386 4.655 33.7 17.06 44.428z" fill="#FFFFFF" p-id="9543"></path><path d="M1815.32 337.082c-23.25 0-41.845-7.68-57.368-22.993-15.476-15.314-23.226-35.235-23.226-58.229 0-22.97 7.75-41.355 23.226-58.228 15.523-15.313 34.118-22.97 57.39-22.97 21.69 0 41.845 7.68 57.345 22.97 15.5 15.337 23.272 35.258 23.272 58.228 0 22.994-7.773 41.38-23.272 58.229-15.5 13.8-34.095 22.993-57.368 22.993z m0-160.884a76.567 76.567 0 0 0-55.785 22.97c-13.964 15.337-21.714 33.722-21.714 56.692 0 21.458 7.75 41.38 21.714 56.693 15.476 15.313 32.535 22.993 55.784 22.993 21.714 0 40.309-7.68 54.272-22.993 13.964-15.314 21.69-33.7 21.69-56.693 0-21.434-7.75-39.843-21.69-55.156-13.963-16.85-30.999-24.506-54.272-24.506z m0 140.963c-17.036 0-31-6.121-41.845-16.873-10.868-12.241-17.059-26.042-17.059-44.428s6.19-33.699 17.059-44.427c10.845-12.265 26.345-16.85 41.844-16.85 17.06 0 31 6.144 41.868 16.85 10.845 12.264 17.036 26.065 17.036 44.45 0 18.386-6.191 33.7-17.036 44.405-10.868 10.752-24.809 16.873-41.868 16.873z m0-122.578c-15.5 0-29.44 6.144-40.31 16.85-10.844 10.728-17.058 26.065-17.058 42.891 0 16.873 6.214 32.187 17.059 42.915a56.6 56.6 0 0 0 80.617 0c10.845-10.705 17.059-26.065 17.059-42.915s-6.191-32.163-17.06-42.891c-9.308-10.706-23.249-16.85-40.308-16.85z m106.96 136.355V177.711h23.25l74.426 119.528h1.536l-1.536-29.114V179.27h20.155v153.204h-20.155l-77.521-124.09h-1.536l1.536 29.09v95.023l-20.154-1.559z" fill="#FFFFFF" p-id="9544"></path><path d="M1942.458 332.474h-21.713V177.711h26.368l72.843 116.456V177.711h21.69v154.763h-21.69l-75.962-122.554 1.536 26.042v96.535h-3.072z m-18.618-1.536h17.059v-93.463l-1.536-30.627h3.095l77.498 124.09h18.619V180.783h-17.083v88.878l1.56 30.627h-3.096l-74.426-117.97h-21.69v148.62z m-190.673 223.698c-60.463 0-108.521 45.963-108.521 108.8 0 62.813 48.058 108.776 108.52 108.776 60.463 0 108.498-45.963 108.498-108.776 0-62.837-49.57-108.8-108.497-108.8z m0 174.661c-32.559 0-60.463-27.578-60.463-65.861 0-39.843 27.927-65.885 60.463-65.885 32.558 0 60.462 26.042 60.462 65.861 0 38.307-27.927 65.885-60.486 65.885h0.024z m-237.173-174.661c-60.486 0-108.52 45.963-108.52 108.8 0 62.813 48.058 108.776 108.52 108.776 60.463 0 108.498-45.963 108.498-108.776 0-62.837-48.059-108.8-108.498-108.8z m0 174.661c-32.582 0-60.486-27.578-60.486-65.861 0-39.843 27.928-65.885 60.486-65.885 32.535 0 60.463 26.042 60.463 65.861 0 38.307-27.928 65.885-60.463 65.885z m-282.158-140.962v45.963h110.056c-3.095 26.066-12.404 44.451-24.785 58.229-15.523 15.313-40.332 33.722-85.271 33.722-68.19 0-120.902-55.157-120.902-122.578 0-67.42 52.69-122.577 120.902-122.577 37.213 0 63.534 13.8 82.152 32.163l32.559-32.163c-27.904-26.042-63.558-45.964-114.735-45.964-92.997 0-170.496 75.078-170.496 168.541s77.499 168.541 170.52 168.541c49.594 0 88.366-16.872 117.83-47.5 30.975-30.65 40.285-73.541 40.285-107.263 0-10.706-1.536-19.922-3.096-29.091h-155.02z m1151.767 35.258c-9.286-24.506-37.19-68.957-92.998-68.957-55.808 0-102.307 44.45-102.307 108.8 0 61.277 46.5 108.776 106.962 108.776a107.124 107.124 0 0 0 89.902-47.5l-37.19-24.529c-12.404 18.386-29.463 30.65-52.712 30.65-24.786 0-41.845-10.728-52.713-32.162l144.174-59.765-3.095-15.313z m-147.247 36.77c-1.559-41.378 32.536-62.836 55.808-62.836 18.619 0 35.654 9.193 40.309 22.994l-96.117 39.82z m-117.83 105.705h48.082V445.836h-48.081v320.232z m-77.498-186.903h-1.536c-10.868-12.265-31.022-24.53-57.367-24.53-54.249 0-103.866 47.5-103.866 108.8 0 61.278 49.617 108.777 103.866 108.777 26.345 0 46.499-12.264 57.367-24.53h1.536v15.314c0 41.38-21.69 64.35-57.367 64.35-29.44 0-46.499-21.435-54.225-38.284l-41.868 16.85c12.381 29.09 43.404 64.348 96.116 64.348 55.808 0 102.307-32.186 102.307-113.384v-194.56h-44.963v16.85z m-54.248 150.132c-32.559 0-60.463-27.578-60.463-65.861 0-38.307 27.927-65.885 60.463-65.885 32.558 0 57.367 27.578 57.367 65.861 0 38.307-24.809 65.885-57.39 65.885z m620.078-283.461h-113.175v320.232h48.058V645.05h66.653c52.713 0 103.866-38.307 103.866-99.607-1.536-61.277-52.69-99.607-105.425-99.607z m1.536 154.763h-68.189V490.287h68.19c35.653 0 55.807 29.114 55.807 55.156 0 24.506-20.154 55.156-55.808 55.156z m293.004-45.963c-34.118 0-69.772 15.313-85.271 49.012l41.844 18.409c9.309-18.386 26.345-22.97 43.404-22.97 24.808 0 49.617 15.29 49.617 41.355v3.072a109.15 109.15 0 0 0-49.617-12.265c-44.94 0-91.462 24.507-91.462 72.006 0 42.915 37.236 70.47 79.057 70.47 32.582 0 49.618-13.777 60.486-30.65h1.536v24.53h46.499V645.026c0-58.205-41.868-90.391-96.116-90.391z m-6.19 174.661c-15.524 0-37.237-7.68-37.237-27.578 0-24.506 26.345-33.722 49.617-33.722 20.155 0 31 4.608 43.404 10.729a56.623 56.623 0 0 1-55.808 50.571z m269.707-168.517l-54.272 137.867h-1.536l-55.808-137.867h-51.154l85.272 193.047-48.082 107.24h49.618l130.21-300.287h-54.248z m-427.846 205.265h48.058V445.882h-48.058v320.21z" fill="#FFFFFF" p-id="9545"></path><path d="M266.007 827.369c-7.75-9.286-10.845-20.108-12.38-30.93V227.328c0-12.358 3.094-24.739 12.357-34.025 1.56 0 3.095 1.56 4.655 3.096l236.613 236.613 72.681 72.681 4.655 4.655c0 3.095-3.119 4.63-4.655 6.167l-146.92 146.92c-32.466 32.49-66.49 64.955-98.98 98.98-20.107 21.643-41.75 41.75-61.858 63.418-3.096 0-4.655 1.536-6.191 1.536z" fill="#01D4FE" p-id="9546"></path><path d="M266.007 827.369l86.575-86.598 227.351-227.328 3.095-3.095h1.536c1.56 0 3.096 1.536 4.655 3.095l98.956 98.956c1.559 1.559 4.654 3.095 3.095 6.19-26.298 15.476-51.037 29.394-77.312 44.847-72.68 41.75-145.362 83.525-218.066 123.717-24.739 13.918-51.037 29.394-75.776 43.288-9.262 6.214-20.107 9.309-30.93 7.75-10.82-1.536-16.988-4.655-23.202-10.822z" fill="#FE3A44" p-id="9547"></path><path d="M583.028 510.348c-68.05-68.05-136.099-134.563-202.589-202.59l-111.36-111.36c-1.536-1.535-3.095-1.535-3.095-3.095 9.31-10.822 21.644-12.358 35.584-9.262 10.822 3.095 21.644 9.262 30.93 13.917l129.908 74.24c41.751 23.18 83.502 47.942 125.254 71.121 34.024 20.108 68.05 38.656 102.074 58.764 1.536 1.56-1.56 3.095-1.56 4.654L587.66 507.252c-1.536 1.536-3.096 3.096-4.655 3.096z" fill="#03EE76" p-id="9548"></path><path d="M583.028 510.348c1.536-1.56 3.096-3.096 3.096-4.655l100.515-100.515c1.536-1.536 3.095-1.536 3.095-3.095 41.751 24.739 85.062 47.942 126.813 72.68 10.822 6.191 20.108 15.477 23.203 27.835 3.072 10.845-1.56 21.643-7.75 29.393-4.655 6.19-10.822 10.822-16.99 13.917-41.774 23.203-81.989 46.406-123.74 69.586 0 0-1.536 0-1.536 1.56 0-1.56-1.56-3.096-3.095-4.655-32.49-34.025-66.49-66.49-100.539-100.515-1.536 0-1.536-1.536-3.072-1.536z" fill="#FED504" p-id="9549"></path></svg>