<?xml version="1.0" standalone="no"?><!DOCTYPE svg PUBLIC "-//W3C//DTD SVG 1.1//EN" "http://www.w3.org/Graphics/SVG/1.1/DTD/svg11.dtd"><svg t="1675847702995" class="icon" viewBox="0 0 1024 1024" version="1.1" xmlns="http://www.w3.org/2000/svg" p-id="43055" xmlns:xlink="http://www.w3.org/1999/xlink" width="128" height="128"><path d="M855.827301 718.202339c-1.104147 3.200902-18.73776 64.132646-61.84044 127.048581-37.223786 54.44296-75.887364 108.664885-136.734174 109.771079-59.796898 1.12973-79.05859-35.485189-147.381675-35.485189-68.408019 0-89.821725 34.380018-146.362462 36.614919-58.750055 2.236947-103.508445-58.829873-141.037177-113.054869-76.715219-110.904902-135.243217-313.394686-56.540737-449.960015 38.988989-67.909669 108.915595-110.877273 184.77226-112.008027 57.729819-1.074472 112.119567 38.800701 147.413398 38.800701 35.265178 0 101.384062-47.986921 170.94944-40.951691 29.086455 1.24127 110.820991 11.728112 163.362648 88.579431-4.193509 2.648316-97.549733 56.982806-96.526427 169.95581C737.086943 672.698982 854.472444 717.679429 855.827301 718.202339M623.477442 205.712175c31.267121-37.83163 52.235688-90.337471 46.496987-142.616138-44.923142 1.654686-99.368148 29.912263-131.5982 67.64054-28.866445 33.444716-54.223972 86.925768-47.354518 138.114614C541.10641 272.76943 592.322885 243.3811 623.477442 205.712175z" fill="#D4D4D4" p-id="43056"></path></svg>