<?xml version="1.0" standalone="no"?><!DOCTYPE svg PUBLIC "-//W3C//DTD SVG 1.1//EN" "http://www.w3.org/Graphics/SVG/1.1/DTD/svg11.dtd"><svg t="1587447516977" class="icon" viewBox="0 0 1024 1024" version="1.1" xmlns="http://www.w3.org/2000/svg" p-id="28834" xmlns:xlink="http://www.w3.org/1999/xlink" width="200" height="200"><defs><style type="text/css"></style></defs><path d="M853.333333 213.333333H170.666667c-46.933333 0-84.906667 38.4-84.906667 85.333334L85.333333 725.333333c0 46.933333 38.4 85.333333 85.333334 85.333334h682.666666c46.933333 0 85.333333-38.4 85.333334-85.333334V298.666667c0-46.933333-38.4-85.333333-85.333334-85.333334z m-384 128h85.333334v85.333334h-85.333334V341.333333z m0 128h85.333334v85.333334h-85.333334v-85.333334zM341.333333 341.333333h85.333334v85.333334H341.333333V341.333333z m0 128h85.333334v85.333334H341.333333v-85.333334z m-42.666666 85.333334H213.333333v-85.333334h85.333334v85.333334z m0-128H213.333333V341.333333h85.333334v85.333334z m384 298.666666H341.333333v-85.333333h341.333334v85.333333z m0-170.666666h-85.333334v-85.333334h85.333334v85.333334z m0-128h-85.333334V341.333333h85.333334v85.333334z m128 128h-85.333334v-85.333334h85.333334v85.333334z m0-128h-85.333334V341.333333h85.333334v85.333334z" p-id="28835" fill="#fc7456"></path></svg>