<?xml version="1.0" standalone="no"?><!DOCTYPE svg PUBLIC "-//W3C//DTD SVG 1.1//EN" "http://www.w3.org/Graphics/SVG/1.1/DTD/svg11.dtd"><svg t="1587612753149" class="icon" viewBox="0 0 1024 1024" version="1.1" xmlns="http://www.w3.org/2000/svg" p-id="11113" xmlns:xlink="http://www.w3.org/1999/xlink" width="200" height="200"><defs><style type="text/css"></style></defs><path d="M425 77H120.5C96.5 77 77 96.5 77 120.5V425c0 24 19.5 43.5 43.5 43.5H425c24 0 43.5-19.5 43.5-43.5V120.5c0-24-19.5-43.5-43.5-43.5zM903.5 77H599c-24 0-43.5 19.5-43.5 43.5v783c0 24 19.5 43.5 43.5 43.5h304.5c24 0 43.5-19.5 43.5-43.5v-783c0-24-19.5-43.5-43.5-43.5zM425 555.5H120.5C96.5 555.5 77 575 77 599v304.5c0 24 19.5 43.5 43.5 43.5H425c24 0 43.5-19.5 43.5-43.5V599c0-24-19.5-43.5-43.5-43.5z" fill="#9e75b3" p-id="11114"></path></svg>